# xmcd CD database file
#
# Track frame offsets:
#	150
#	14321
#	28221
#	42519
#	55065
#	74164
#	96183
#	114777
#	129038
#	150300
#	170293
#	187585
#	206138
#	227942
#	258128
#	288698
#	308863
#
# Disc length: 4388 seconds
#
# Revision: 0
# Processed by: cddbd v1.4PL0 Copyright (c) Steve Scherf et al.
# Submitted via: CDex 1.50Beta7
#
DISCID=e3112211
DTITLE=Various Artist - Jazz - SwingJournal THE Blue NOTE [CD1]
DYEAR=1900
DGENRE=Jazz
TTITLE0=EPISTROPHY(Monk-Clarke)
TTITLE1=Bouncing With BUD(Powell)
TTITLE2=Boperration (Navarro)
TTITLE3=TIN TIN DEO(Gillespie)
TTITLE4=Dear OLD STOCKHOLM(Trad.)
TTITLE5=GET HAPPY(Koehler-Arlen)
TTITLE6=Himn OF THE ORIENT(Gryce)
TTITLE7=Blue MOON(Rodgers-Hart)
TTITLE8=Everything Happens To me(Dennis-Adair)
TTITLE9=THE GIG(Nichols)
TTITLE10=Take ME IN Your ARMS(Markush)
TTITLE11=LOVER(Rodgers-Hart)
TTITLE12=THE SET BREAK(Melle)
TTITLE13=April IN PARIS(Duke)
TTITLE14=DOODOLIN'(Silver)
TTITLE15=Minor's HOLIDAY(Dorham)
TTITLE16=Avia AND TEQUILA(Mobley)
EXTD=
EXTT0=
EXTT1=
EXTT2=
EXTT3=
EXTT4=
EXTT5=
EXTT6=
EXTT7=
EXTT8=
EXTT9=
EXTT10=
EXTT11=
EXTT12=
EXTT13=
EXTT14=
EXTT15=
EXTT16=
PLAYORDER=
